<?xml version="1.0" encoding="UTF-8" standalone="no"?>
<!-- Created with Inkscape (http://www.inkscape.org/) -->

<svg
   width="270.93332mm"
   height="152.39999mm"
   viewBox="0 0 270.93332 152.39999"
   version="1.1"
   id="svg1"
   xml:space="preserve"
   sodipodi:docname="notenameonnoteheadOFF.svg"
   inkscape:version="1.4 (86a8ad7, 2024-10-11)"
   inkscape:export-filename="notenameonnoteheadOFF.png"
   inkscape:export-xdpi="96"
   inkscape:export-ydpi="96"
   xmlns:inkscape="http://www.inkscape.org/namespaces/inkscape"
   xmlns:sodipodi="http://sodipodi.sourceforge.net/DTD/sodipodi-0.dtd"
   xmlns:xlink="http://www.w3.org/1999/xlink"
   xmlns="http://www.w3.org/2000/svg"
   xmlns:svg="http://www.w3.org/2000/svg"><sodipodi:namedview
     id="namedview1"
     pagecolor="#ffffff"
     bordercolor="#000000"
     borderopacity="0.25"
     inkscape:showpageshadow="2"
     inkscape:pageopacity="0.0"
     inkscape:pagecheckerboard="0"
     inkscape:deskcolor="#d1d1d1"
     inkscape:document-units="mm"
     inkscape:zoom="0.25669573"
     inkscape:cx="755.75858"
     inkscape:cy="1505.6737"
     inkscape:window-width="2560"
     inkscape:window-height="1017"
     inkscape:window-x="1912"
     inkscape:window-y="-8"
     inkscape:window-maximized="1"
     inkscape:current-layer="layer1" /><defs
     id="defs1"><rect
       x="278.53989"
       y="455.79254"
       width="15.12584"
       height="14.49209"
       id="rect4" /><linearGradient
       id="linearGradient3"
       inkscape:collect="always"><stop
         style="stop-color:#ba4b25;stop-opacity:0.99607843;"
         offset="0"
         id="stop3" /><stop
         style="stop-color:#edb84d;stop-opacity:1"
         offset="1"
         id="stop4" /></linearGradient><linearGradient
       inkscape:collect="always"
       xlink:href="#linearGradient3"
       id="linearGradient4"
       x1="247.7944"
       y1="337.52695"
       x2="-23.138733"
       y2="291.97482"
       gradientUnits="userSpaceOnUse"
       gradientTransform="translate(-7.2882512,-162.89448)" /><rect
       x="278.53989"
       y="455.79254"
       width="15.12584"
       height="14.49209"
       id="rect5" /><rect
       x="278.53989"
       y="455.79254"
       width="15.12584"
       height="14.49209"
       id="rect5-2" /><rect
       x="278.53989"
       y="455.79254"
       width="15.12584"
       height="14.49209"
       id="rect5-2-7" /></defs><g
     inkscape:label="Layer 1"
     inkscape:groupmode="layer"
     id="layer1"
     transform="translate(30.427076,-72.231255)"><rect
       style="opacity:1;fill:url(#linearGradient4);fill-opacity:1;stroke:none;stroke-width:1"
       id="rect1"
       width="270.93314"
       height="152.39999"
       x="-30.426985"
       y="72.231255"
       ry="12.47792" /><g
       id="g5"><path
         style="fill:#ffffff;stroke:none;stroke-width:1.56146"
         d="m 208.89806,101.63963 v 43.3793 c 0,6.18405 1.38447,14.29214 -0.32613,20.24366 -2.19468,7.63583 -16.55615,15.31865 -22.99216,8.12693 -3.13423,-3.50224 -1.04747,-8.78881 1.61399,-11.80818 4.69358,-5.32471 13.29742,-7.77291 19.63861,-4.16833 v -46.27126 l -33.87716,3.78678 -55.36025,6.12849 v 36.35599 c 0,5.38212 1.11855,12.27655 -0.97163,17.35172 -2.91216,7.07091 -16.42401,14.62174 -22.827373,7.35994 -3.137198,-3.55777 -0.80624,-8.94641 1.94137,-11.90285 4.938543,-5.31388 12.786493,-7.46479 19.378823,-4.13295 v -44.61871 l -23.135628,2.41029 -46.684396,5.0947 -19.417389,1.99714 v 36.76912 c 0,5.34012 1.183289,12.35057 -0.97482,17.35172 -3.004842,6.96339 -16.6478279,14.53494 -22.8241813,7.00515 -2.84074765,-3.46325 -0.990855,-8.53202 1.6241673,-11.53339 4.5613351,-5.23522 13.569786,-8.31766 19.696016,-4.14762 v -55.36025 l 46.684388,-4.8878 99.978943,-10.46805 z"
         id="path1"
         sodipodi:nodetypes="cssssccccsssscccccssssccccc" /><text
         xml:space="preserve"
         transform="matrix(1.1553781,0,0,1.1553781,-317.06059,-349.87077)"
         id="text4"
         style="font-weight:bold;font-size:12.2134px;line-height:1.2;font-family:Ebrima;-inkscape-font-specification:'Ebrima Bold';text-align:start;text-decoration-color:#000000;writing-mode:lr-tb;direction:ltr;white-space:pre;shape-inside:url(#rect4);opacity:1;fill:#1a1a1a;fill-opacity:1;stroke:none;stroke-width:3.77953"><tspan
           x="278.53906"
           y="466.33264"
           id="tspan2"><tspan
             style="font-weight:normal;font-family:'Comic Sans MS';-inkscape-font-specification:'Comic Sans MS'"
             id="tspan1">do</tspan></tspan></text><text
         xml:space="preserve"
         transform="matrix(1.1553781,0,0,1.1553781,-317.06059,-349.87077)"
         id="text5"
         style="font-weight:bold;font-size:12.2134px;line-height:1.2;font-family:Ebrima;-inkscape-font-specification:'Ebrima Bold';text-align:start;text-decoration-color:#000000;writing-mode:lr-tb;direction:ltr;white-space:pre;shape-inside:url(#rect5);opacity:1;fill:#1a1a1a;fill-opacity:1;stroke:none;stroke-width:3.77953"><tspan
           x="278.53906"
           y="466.33264"
           id="tspan4"><tspan
             style="font-weight:normal;font-family:'Comic Sans MS';-inkscape-font-specification:'Comic Sans MS'"
             id="tspan3">do</tspan></tspan></text><text
         xml:space="preserve"
         transform="matrix(1.1553781,0,0,1.1553781,-224.82021,-360.52421)"
         id="text5-5"
         style="font-weight:bold;font-size:12.2134px;line-height:1.2;font-family:Ebrima;-inkscape-font-specification:'Ebrima Bold';text-align:start;text-decoration-color:#000000;writing-mode:lr-tb;direction:ltr;white-space:pre;shape-inside:url(#rect5-2);fill:#1a1a1a;fill-opacity:1;stroke:none;stroke-width:3.77953"><tspan
           x="278.53906"
           y="466.33264"
           id="tspan6"><tspan
             style="font-weight:normal;font-family:'Comic Sans MS';-inkscape-font-specification:'Comic Sans MS'"
             id="tspan5">re</tspan></tspan></text><text
         xml:space="preserve"
         transform="matrix(1.1553781,0,0,1.1553781,-132.79769,-368.78423)"
         id="text5-5-1"
         style="font-weight:bold;font-size:12.2134px;line-height:1.2;font-family:Ebrima;-inkscape-font-specification:'Ebrima Bold';text-align:start;text-decoration-color:#000000;writing-mode:lr-tb;direction:ltr;white-space:pre;shape-inside:url(#rect5-2-7);fill:#1a1a1a;fill-opacity:1;stroke:none;stroke-width:3.77953"><tspan
           x="278.53906"
           y="466.33264"
           id="tspan8"><tspan
             style="font-weight:normal;font-family:'Comic Sans MS';-inkscape-font-specification:'Comic Sans MS'"
             id="tspan7">mi</tspan></tspan></text></g><path
       id="path5"
       style="opacity:1;fill:#ff0000;fill-opacity:1;stroke:none;stroke-width:0.671236"
       d="m 19.563505,177.54987 c -2.757071,1.53824 -4.487676,2.47211 -7.217616,4.12887 -0.484464,0.29401 -0.969183,0.59143 -1.452369,0.8912 -0.687305,-0.65362 -1.3669152,-1.31539 -2.0469432,-1.97605 l -2.561014,-0.64959 c 1.161394,1.1247 2.349131,2.21862 3.55863,3.28817 -1.983406,1.27164 -3.904633,2.64369 -5.584533,4.30229 -0.270061,0.26663 -0.482938,0.5863 -0.724161,0.87927 l 2.443688,1.01142 c 0.22175,-0.2976 0.41152,-0.6221 0.665202,-0.89301 1.412614,-1.50855 3.050026,-2.78123 4.7609002,-3.94386 0.716197,0.61257 1.438372,1.21844 2.167144,1.81719 1.2346,1.00507 2.526833,1.93466 3.79526,2.89559 l 2.535172,0.61252 c -1.291087,-0.96783 -2.613615,-1.89429 -3.873323,-2.90379 -0.727807,-0.59221 -2.119216,-1.71586 -2.811595,-2.31591 -0.284407,-0.24648 -0.565358,-0.49676 -0.844536,-0.74902 0.68652,-0.44573 1.379927,-0.87804 2.071445,-1.30391 2.694079,-1.65911 4.486736,-2.59992 7.232435,-4.10626 z" /><path
       id="path5-1"
       style="fill:#ff0000;fill-opacity:1;stroke:none;stroke-width:0.671236"
       d="m 204.32407,160.02139 c -2.75707,1.53824 -4.48768,2.47211 -7.21762,4.12887 -0.48446,0.29401 -0.96918,0.59143 -1.45237,0.8912 -0.6873,-0.65362 -1.36691,-1.31539 -2.04694,-1.97605 l -2.561,-0.64959 c 1.16139,1.1247 2.34913,2.21862 3.55861,3.28817 -1.98339,1.27164 -3.90461,2.64369 -5.58451,4.30229 -0.27006,0.26663 -0.48294,0.5863 -0.72416,0.87927 l 2.44369,1.01142 c 0.22175,-0.2976 0.41152,-0.6221 0.66519,-0.89301 1.41261,-1.50855 3.05002,-2.78123 4.76089,-3.94386 0.7162,0.61257 1.43837,1.21844 2.16714,1.81719 1.2346,1.00507 2.52684,1.93466 3.79526,2.89559 l 2.53518,0.61252 c -1.29109,-0.96783 -2.61362,-1.89429 -3.87333,-2.90379 -0.7278,-0.59221 -2.11921,-1.71586 -2.81159,-2.31591 -0.28441,-0.24648 -0.56536,-0.49676 -0.84454,-0.74902 0.68652,-0.44573 1.37993,-0.87804 2.07145,-1.30391 2.69408,-1.65911 4.48673,-2.59992 7.23243,-4.10626 z" /><path
       id="path6"
       style="fill:#ff0000;fill-opacity:1;stroke:none;stroke-width:0.671236"
       d="m 112.30155,168.28141 c -2.75707,1.53824 -4.48768,2.47211 -7.21762,4.12887 -0.48446,0.29401 -0.96918,0.59143 -1.45237,0.8912 -0.6873,-0.65362 -1.36691,-1.31539 -2.04694,-1.97605 l -2.560997,-0.64959 c 1.161387,1.1247 2.349127,2.21862 3.558607,3.28817 -1.98339,1.27164 -3.904607,2.64369 -5.584507,4.30229 -0.27006,0.26663 -0.48294,0.5863 -0.72416,0.87927 l 2.44369,1.01142 c 0.22175,-0.2976 0.41152,-0.6221 0.66519,-0.89301 1.412607,-1.50855 3.050017,-2.78123 4.760887,-3.94386 0.7162,0.61257 1.43837,1.21844 2.16714,1.81719 1.2346,1.00507 2.52684,1.93466 3.79526,2.89559 l 2.53518,0.61252 c -1.29109,-0.96783 -2.61362,-1.89429 -3.87333,-2.90379 -0.7278,-0.59221 -2.11921,-1.71586 -2.81159,-2.31591 -0.28441,-0.24648 -0.56536,-0.49676 -0.84454,-0.74902 0.68652,-0.44573 1.37993,-0.87804 2.07145,-1.30391 2.69408,-1.65911 4.48673,-2.59992 7.23243,-4.10626 z" /></g></svg>
